PERFORMER "Terry Pratchett"
TITLE "Zbrojni"
FILE "zbrojni.mp3" MP3
REM ZHVtbXktdG9rZW4tbm90LXJlYWw9PQ==
	TRACK 00 AUDIO
		PERFORMER "Maciej Kowalik"
		REM "0000 - zbrojni.mp3" 0
		TITLE "Sciezka 01"
		INDEX 01 00:00:00
	TRACK 01 AUDIO
		PERFORMER "Maciej Kowalik"
		REM "0001 - zbrojni.mp3" 1731696
		TITLE "Sciezka 02"
		INDEX 01 28:51:52
	TRACK 02 AUDIO
		PERFORMER "Maciej Kowalik"
		REM "0002 - zbrojni.mp3" 3480744
		TITLE "Sciezka 03"
		INDEX 01 58:00:55
	TRACK 03 AUDIO
		PERFORMER "Maciej Kowalik"
		REM "0003 - zbrojni.mp3" 5387112
		TITLE "Sciezka 04"
		INDEX 01 89:47:08
	TRACK 04 AUDIO
		PERFORMER "Maciej Kowalik"
		REM "0004 - zbrojni.mp3" 7068576
		TITLE "Sciezka 05"
		INDEX 01 117:48:43
	TRACK 05 AUDIO
		PERFORMER "Maciej Kowalik"
		REM "0005 - zbrojni.mp3" 8742240
		TITLE "Sciezka 06"
		INDEX 01 145:42:18
	TRACK 06 AUDIO
		PERFORMER "Maciej Kowalik"
		REM "0006 - zbrojni.mp3" 10401360
		TITLE "Sciezka 07"
		INDEX 01 173:21:27
	TRACK 07 AUDIO
		PERFORMER "Maciej Kowalik"
		REM "0007 - zbrojni.mp3" 12101448
		TITLE "Sciezka 08"
		INDEX 01 201:41:33
	TRACK 08 AUDIO
		PERFORMER "Maciej Kowalik"
		REM "0008 - zbrojni.mp3" 13806336
		TITLE "Sciezka 09"
		INDEX 01 230:06:25
	TRACK 09 AUDIO
		PERFORMER "Maciej Kowalik"
		REM "0009 - zbrojni.mp3" 15468648
		TITLE "Sciezka 10"
		INDEX 01 257:48:48
	TRACK 10 AUDIO
		PERFORMER "Maciej Kowalik"
		REM "0010 - zbrojni.mp3" 17352984
		TITLE "Sciezka 11"
		INDEX 01 289:12:73
	TRACK 11 AUDIO
		PERFORMER "Maciej Kowalik"
		REM "0011 - zbrojni.mp3" 19092048
		TITLE "Sciezka 12"
		INDEX 01 318:12:03
	TRACK 12 AUDIO
		PERFORMER "Maciej Kowalik"
		REM "0012 - zbrojni.mp3" 20933112
		TITLE "Sciezka 13"
		INDEX 01 348:53:08
	TRACK 13 AUDIO
		PERFORMER "Maciej Kowalik"
		REM "0013 - zbrojni.mp3" 22684584
		TITLE "Sciezka 14"
		INDEX 01 378:04:43
	TRACK 14 AUDIO
		PERFORMER "Maciej Kowalik"
		REM "0014 - zbrojni.mp3" 24783048
		TITLE "Sciezka 15"
		INDEX 01 413:03:03
	TRACK 15 AUDIO
		PERFORMER "Maciej Kowalik"
		REM "0015 - zbrojni.mp3" 26812032
		TITLE "Sciezka 16"
		INDEX 01 446:52:02
	TRACK 16 AUDIO
		PERFORMER "Maciej Kowalik"
		REM "0016 - zbrojni.mp3" 28334808
		TITLE "Sciezka 17"
		INDEX 01 472:14:60
	TRACK 17 AUDIO
		PERFORMER "Maciej Kowalik"
		REM "0017 - zbrojni.mp3" 30046248
		TITLE "Sciezka 18"
		INDEX 01 500:46:18
	TRACK 18 AUDIO
		PERFORMER "Maciej Kowalik"
		REM "0018 - zbrojni.mp3" 31755216
		TITLE "Sciezka 19"
		INDEX 01 529:15:16
	TRACK 19 AUDIO
		PERFORMER "Maciej Kowalik"
		REM "0019 - zbrojni.mp3" 33348672
		TITLE "Sciezka 20"
		INDEX 01 555:48:50
	TRACK 20 AUDIO
		PERFORMER "Maciej Kowalik"
		REM "0020 - zbrojni.mp3" 35161368
		TITLE "Sciezka 21"
		INDEX 01 586:01:27
	TRACK 21 AUDIO
		PERFORMER "Maciej Kowalik"
		REM "0021 - zbrojni.mp3" 36698256
		TITLE "Sciezka 22"
		INDEX 01 611:38:19
